<svg xmlns="http://www.w3.org/2000/svg" width="40" height="40" viewBox="0 0 40 40" aria-hidden="true">
  <rect x="0" y="0" width="40" height="40" rx="10" ry="10" fill="#4A90E2"/>
  <!-- dinte stilizat -->
  <path d="M26.5 9.5c-1.8 0-3 .8-4.5 2.1-1.5-1.3-2.7-2.1-4.5-2.1C14 9.5 12 11.6 12 14.6c0 3.7 2.3 5.8 3.6 7.4.6.7 1 1.3 1 2.1 0 .8-.1 1.6-.3 2.4-.2.9-.2 1.3.4 1.8.8.6 1.7.2 2.2-.8.5-1 .9-2.6 1.5-3.6.3-.5.7-.8 1.1-.8.4 0 .8.3 1.1.8.6 1 1 2.6 1.5 3.6.5 1 1.4 1.4 2.2.8.6-.5.6-.9.4-1.8-.2-.8-.3-1.6-.3-2.4 0-.8.4-1.4 1-2.1 1.3-1.6 3.6-3.7 3.6-7.4 0-3-2-5.1-5.5-5.1z" fill="#FFFFFF" opacity=".95"/>
</svg>
